<!DOCTYPE svg PUBLIC "-//W3C//DTD SVG 20010904//EN" "http://www.w3.org/TR/2001/REC-SVG-20010904/DTD/svg10.dtd">
<svg version="1.0" xmlns="http://www.w3.org/2000/svg" width="588px" height="1024px" viewBox="0 0 5880 10240" preserveAspectRatio="xMidYMid meet">
<g id="layer101" fill="#fb0b0c" stroke="none">
 <path d="M0 5120 l0 -5120 2940 0 2940 0 0 5120 0 5120 -2940 0 -2940 0 0 -5120z"/>
 </g>
<g id="layer102" fill="#ffe0e1" stroke="none">
 <path d="M0 9408 l1 -833 36 40 c19 22 54 64 77 94 22 29 52 68 66 86 14 18 81 104 150 190 69 87 211 266 315 399 304 386 362 459 517 655 82 102 148 189 148 194 0 4 -295 7 -655 7 l-655 0 0 -832z"/>
 <path d="M5269 10203 c-20 -21 -181 -213 -359 -428 -497 -598 -664 -801 -760 -915 -48 -58 -260 -312 -470 -565 -210 -253 -392 -471 -404 -485 -11 -14 -64 -77 -116 -140 -52 -63 -97 -117 -100 -120 -3 -3 -35 -41 -71 -85 -37 -44 -173 -208 -304 -365 -130 -157 -251 -303 -270 -325 -76 -92 -1019 -1226 -1172 -1409 -159 -190 -166 -200 -152 -222 11 -17 416 -505 535 -644 12 -14 59 -70 104 -125 45 -55 144 -174 220 -265 160 -192 970 -1166 1368 -1645 151 -181 284 -341 296 -355 11 -14 73 -88 137 -165 172 -206 688 -827 707 -850 9 -11 120 -144 246 -295 276 -333 416 -501 559 -671 l108 -129 255 0 254 0 0 5120 0 5120 -288 0 -288 0 -35 -37z"/>
 <path d="M0 1031 l0 -1031 810 0 c446 0 810 3 810 8 0 4 -66 90 -146 192 -80 102 -160 204 -177 226 -18 23 -103 131 -189 240 -86 110 -253 321 -370 470 -117 149 -303 385 -413 524 -110 139 -224 283 -252 321 -29 37 -57 70 -63 74 -7 4 -10 -326 -10 -1024z"/>
 </g>
<g id="layer103" fill="#ffffff" stroke="none">
 <path d="M0 9408 c0 -789 1 -831 17 -808 10 14 28 33 40 43 13 10 23 23 23 28 0 6 16 26 35 46 19 20 35 40 35 45 0 5 16 25 35 45 19 20 35 42 35 49 0 7 9 18 20 24 11 6 20 16 20 23 0 7 15 30 34 51 19 20 36 41 38 45 6 15 63 84 91 109 15 14 27 31 27 38 0 7 9 18 20 24 11 6 20 17 20 26 0 8 7 17 15 20 8 4 15 11 15 18 0 6 18 30 39 54 21 23 42 49 45 57 3 8 10 15 16 15 5 0 10 4 10 10 0 14 91 130 102 130 4 0 8 5 8 11 0 6 18 29 40 51 22 22 40 46 40 54 0 7 9 18 20 24 11 6 20 17 20 26 0 8 7 17 15 20 8 4 15 11 15 18 0 6 18 31 40 55 22 24 40 46 40 48 0 8 93 123 99 123 10 0 91 107 91 120 0 6 7 13 15 16 8 4 15 12 15 20 0 7 9 18 20 24 11 6 20 17 20 25 0 8 9 19 20 25 11 6 20 17 20 24 0 8 7 19 15 26 8 7 15 16 15 21 0 5 -284 9 -650 9 l-650 0 0 -832z"/>
 <path d="M5282 10212 c-18 -15 -32 -32 -32 -39 0 -7 -9 -17 -20 -23 -11 -6 -20 -15 -20 -21 0 -6 -13 -22 -30 -36 -16 -13 -30 -31 -30 -39 0 -8 -9 -19 -20 -26 -11 -7 -20 -18 -20 -24 0 -6 -16 -24 -35 -38 -20 -15 -33 -31 -30 -36 3 -5 -3 -15 -15 -22 -11 -7 -20 -18 -20 -25 0 -6 -13 -21 -30 -33 -16 -12 -30 -28 -30 -35 0 -8 -9 -19 -20 -25 -11 -6 -20 -15 -20 -21 0 -5 -16 -23 -35 -40 -19 -17 -33 -35 -30 -40 3 -4 -3 -14 -15 -21 -11 -7 -20 -18 -20 -25 0 -6 -13 -21 -30 -33 -16 -12 -30 -28 -30 -35 0 -8 -9 -19 -20 -25 -11 -6 -20 -17 -20 -24 0 -7 -22 -36 -50 -64 -27 -28 -50 -55 -50 -61 0 -5 -13 -19 -30 -31 -16 -12 -30 -28 -30 -36 0 -8 -7 -17 -15 -20 -8 -4 -15 -12 -15 -19 0 -8 -11 -22 -25 -33 -14 -11 -25 -23 -25 -27 0 -3 -13 -18 -30 -32 -16 -13 -30 -30 -30 -37 0 -7 -22 -35 -50 -62 -27 -27 -50 -54 -50 -61 0 -7 -9 -17 -20 -23 -11 -6 -20 -16 -20 -23 0 -7 -13 -23 -30 -37 -16 -14 -30 -30 -30 -37 0 -7 -9 -18 -20 -25 -11 -7 -20 -18 -20 -25 0 -7 -11 -20 -25 -29 -14 -9 -25 -22 -25 -30 0 -7 -11 -21 -25 -30 -14 -9 -25 -19 -25 -23 0 -4 -22 -31 -50 -61 -27 -30 -50 -60 -50 -66 0 -7 -13 -22 -30 -34 -16 -12 -30 -28 -30 -35 0 -8 -9 -19 -20 -25 -11 -6 -20 -17 -20 -25 0 -8 -9 -20 -20 -27 -11 -7 -20 -18 -20 -25 0 -6 -13 -21 -30 -33 -16 -12 -30 -28 -30 -36 0 -7 -9 -19 -20 -26 -11 -7 -20 -17 -20 -23 0 -6 -13 -21 -30 -35 -16 -14 -30 -30 -30 -37 0 -7 -9 -18 -20 -25 -11 -7 -20 -18 -20 -25 0 -6 -13 -21 -30 -33 -16 -12 -30 -27 -30 -34 0 -7 -22 -36 -50 -64 -27 -28 -50 -55 -50 -61 0 -6 -9 -15 -20 -21 -11 -6 -20 -16 -20 -23 0 -7 -13 -23 -30 -37 -16 -14 -30 -30 -30 -36 0 -6 -22 -34 -50 -62 -27 -28 -50 -55 -50 -61 0 -6 -9 -15 -20 -21 -11 -6 -20 -17 -20 -24 0 -8 -25 -39 -55 -69 -30 -30 -55 -59 -55 -65 0 -5 -11 -17 -25 -26 -14 -9 -25 -23 -25 -31 0 -8 -9 -19 -20 -25 -11 -6 -20 -17 -20 -24 0 -7 -22 -36 -50 -65 -27 -29 -50 -56 -50 -60 0 -4 -22 -31 -50 -59 -27 -29 -50 -56 -50 -62 0 -5 -9 -14 -20 -20 -11 -6 -20 -17 -20 -25 0 -8 -13 -24 -30 -37 -16 -12 -30 -28 -30 -35 0 -7 -9 -18 -20 -25 -11 -7 -20 -18 -20 -25 0 -7 -13 -22 -30 -35 -16 -12 -30 -28 -30 -35 0 -7 -9 -17 -20 -23 -11 -6 -20 -16 -20 -23 0 -7 -13 -23 -30 -37 -16 -14 -30 -30 -30 -36 0 -6 -22 -34 -50 -63 -27 -29 -50 -56 -50 -61 0 -5 -9 -14 -20 -20 -11 -6 -20 -17 -20 -24 0 -7 -22 -36 -50 -65 -27 -29 -50 -54 -50 -57 0 -3 -22 -28 -50 -56 -27 -28 -50 -57 -50 -64 0 -7 -11 -21 -25 -32 -14 -11 -25 -25 -25 -31 0 -6 -11 -18 -25 -27 -14 -9 -25 -22 -25 -28 0 -7 -22 -36 -50 -64 -27 -29 -50 -56 -50 -61 0 -5 -11 -16 -25 -25 -14 -9 -25 -21 -25 -27 0 -6 -11 -20 -25 -31 -14 -11 -25 -25 -25 -31 0 -7 -20 -34 -45 -61 -25 -27 -45 -53 -45 -58 0 -4 -11 -15 -25 -24 -14 -9 -25 -22 -25 -30 0 -7 -13 -23 -30 -36 -16 -12 -30 -27 -30 -34 0 -7 -11 -21 -25 -32 -14 -11 -25 -25 -25 -31 0 -6 -11 -18 -25 -27 -14 -9 -25 -22 -25 -30 0 -7 -9 -18 -20 -24 -11 -6 -20 -17 -20 -24 0 -7 -22 -36 -50 -65 -27 -29 -50 -56 -50 -62 0 -5 -9 -14 -20 -21 -11 -7 -20 -17 -20 -21 0 -5 -14 -20 -30 -34 -16 -13 -30 -31 -30 -38 0 -8 -11 -22 -25 -33 -14 -11 -25 -25 -25 -30 0 -6 -14 -20 -30 -32 -17 -12 -30 -27 -30 -34 0 -7 -20 -34 -45 -59 -25 -26 -45 -51 -45 -56 0 -6 -9 -15 -20 -21 -12 -6 -25 -22 -30 -36 -12 -30 3 -74 25 -74 8 0 15 -6 15 -14 0 -8 7 -16 15 -20 8 -3 15 -12 15 -19 0 -8 16 -27 35 -41 19 -15 35 -33 35 -41 0 -8 9 -19 20 -25 11 -6 20 -17 20 -25 0 -8 9 -19 20 -25 11 -6 20 -15 20 -21 0 -6 22 -33 50 -61 27 -28 50 -56 50 -63 0 -7 11 -20 25 -29 14 -9 25 -23 25 -31 0 -8 11 -22 25 -31 14 -9 25 -22 25 -28 0 -7 14 -22 30 -34 17 -13 30 -29 30 -37 0 -8 9 -19 20 -25 11 -6 20 -15 20 -20 0 -5 23 -32 50 -61 28 -29 50 -56 50 -61 0 -4 23 -31 50 -60 28 -28 50 -57 50 -64 0 -6 11 -19 25 -28 14 -9 25 -21 25 -27 0 -6 11 -20 25 -31 14 -11 25 -25 25 -31 0 -7 13 -23 30 -37 16 -14 30 -29 30 -35 0 -6 9 -16 20 -23 11 -7 20 -18 20 -26 0 -7 22 -35 50 -62 27 -27 50 -54 50 -61 0 -7 32 -45 70 -84 39 -40 70 -78 70 -84 0 -6 14 -21 30 -33 17 -13 30 -29 30 -37 0 -8 9 -19 20 -25 11 -6 20 -15 20 -20 0 -6 23 -33 50 -62 28 -28 50 -57 50 -64 0 -7 13 -22 30 -34 16 -12 30 -26 30 -32 0 -5 11 -19 25 -30 14 -11 25 -24 25 -29 0 -6 11 -20 25 -33 14 -13 25 -27 25 -32 0 -5 9 -15 20 -22 11 -7 20 -16 20 -21 0 -6 22 -33 50 -62 28 -29 50 -58 50 -65 0 -7 9 -18 20 -24 11 -6 20 -17 20 -25 0 -7 13 -23 30 -35 16 -12 30 -27 30 -34 0 -8 22 -35 50 -62 27 -27 50 -54 50 -61 0 -7 9 -17 20 -23 11 -6 20 -17 20 -25 0 -7 13 -23 30 -35 16 -12 30 -27 30 -33 0 -7 9 -18 20 -25 11 -7 20 -18 20 -25 0 -7 14 -23 30 -35 17 -13 30 -29 30 -37 0 -8 9 -19 20 -25 11 -6 20 -17 20 -24 0 -8 14 -26 30 -39 17 -14 30 -30 30 -36 0 -6 9 -15 20 -21 11 -6 20 -17 20 -24 0 -8 13 -26 30 -39 17 -14 30 -29 30 -34 0 -4 9 -14 20 -21 11 -7 20 -18 20 -25 0 -7 13 -23 30 -37 17 -14 30 -29 30 -35 0 -6 9 -16 20 -23 11 -7 20 -19 20 -26 0 -8 13 -24 30 -36 17 -12 30 -27 30 -33 0 -7 9 -18 20 -25 11 -7 20 -18 20 -25 0 -7 14 -23 30 -37 17 -14 30 -28 30 -31 0 -4 16 -24 35 -45 19 -21 35 -43 35 -49 0 -6 16 -25 35 -41 19 -16 35 -34 35 -39 0 -6 32 -44 70 -84 39 -41 70 -80 70 -87 0 -7 13 -22 30 -34 17 -12 30 -26 30 -32 0 -5 11 -19 25 -30 14 -11 25 -26 25 -33 0 -7 11 -22 25 -33 14 -11 25 -25 25 -31 0 -5 9 -15 20 -21 11 -6 20 -17 20 -25 0 -7 14 -23 30 -35 17 -12 30 -27 30 -33 0 -7 9 -18 20 -25 12 -7 18 -16 16 -21 -3 -4 19 -33 49 -64 30 -31 55 -61 55 -66 0 -5 13 -19 30 -31 16 -12 30 -27 30 -33 0 -7 9 -18 20 -25 11 -7 20 -18 20 -26 0 -8 11 -21 25 -30 14 -9 25 -23 25 -30 0 -8 11 -21 25 -30 14 -9 25 -23 25 -31 0 -8 11 -22 25 -31 14 -9 25 -21 25 -26 0 -6 11 -19 25 -30 14 -11 25 -25 25 -32 0 -6 32 -45 70 -85 39 -41 70 -80 70 -87 0 -7 14 -22 30 -34 17 -12 30 -26 30 -32 0 -5 11 -19 25 -30 14 -11 25 -24 25 -29 0 -5 20 -30 45 -56 25 -25 45 -52 45 -59 0 -7 14 -22 30 -34 17 -12 30 -26 30 -32 0 -5 11 -19 25 -30 14 -11 25 -25 25 -32 0 -7 20 -33 45 -58 25 -25 45 -51 45 -56 0 -6 14 -20 30 -32 17 -12 30 -28 30 -36 0 -7 9 -19 20 -26 11 -7 20 -18 20 -25 0 -7 11 -20 25 -29 14 -9 25 -22 25 -28 0 -7 13 -22 30 -34 28 -21 38 -22 275 -22 l245 0 0 5120 0 5120 -282 0 -283 -1 -33 -27z"/>
 <path d="M0 1025 l0 -1025 810 0 c513 0 810 4 810 10 0 5 -17 26 -38 47 -49 49 -142 168 -142 182 0 5 -9 15 -20 21 -11 6 -20 15 -20 21 0 5 -16 26 -35 46 -19 20 -35 41 -35 48 0 7 -16 28 -35 48 -19 20 -35 40 -35 45 0 5 -15 24 -33 43 -18 19 -36 42 -40 52 -3 9 -10 17 -15 17 -8 0 -102 113 -102 123 0 2 -16 21 -35 42 -19 21 -32 42 -29 46 2 5 -7 16 -21 25 -14 9 -25 20 -25 26 0 14 -79 116 -96 122 -7 3 -14 12 -14 21 0 8 -5 15 -10 15 -6 0 -15 11 -20 25 -5 14 -13 25 -18 25 -9 0 -102 113 -102 123 0 2 -18 24 -40 48 -22 24 -40 49 -40 55 0 7 -7 14 -15 18 -8 3 -15 12 -15 20 0 9 -9 20 -20 26 -11 6 -20 17 -20 24 0 8 -7 16 -15 20 -8 3 -15 12 -15 19 0 8 -16 30 -35 50 -19 20 -35 40 -35 45 0 5 -11 17 -25 26 -14 9 -25 20 -25 25 0 5 -16 26 -35 47 -19 21 -35 41 -35 45 0 3 -18 26 -40 50 -22 24 -40 50 -40 56 0 7 -5 13 -10 13 -6 0 -15 11 -19 23 -10 25 -78 110 -149 187 -23 24 -42 49 -42 56 0 7 -7 14 -15 18 -13 5 -15 -113 -15 -1019z"/>
 </g>

</svg>