<!DOCTYPE svg PUBLIC "-//W3C//DTD SVG 20010904//EN" "http://www.w3.org/TR/2001/REC-SVG-20010904/DTD/svg10.dtd">
<svg version="1.0" xmlns="http://www.w3.org/2000/svg" width="1518px" height="1600px" viewBox="0 0 15180 16000" preserveAspectRatio="xMidYMid meet">
<g id="layer101" fill="#000000" stroke="none">
 <path d="M490 15766 c-123 -33 -234 -157 -255 -282 -5 -36 15 -346 30 -454 3 -19 12 -114 20 -210 8 -96 26 -299 40 -450 14 -151 32 -345 40 -430 8 -85 32 -353 54 -595 108 -1168 243 -2647 256 -2790 8 -88 26 -284 40 -435 14 -151 32 -351 40 -445 8 -93 17 -190 20 -215 3 -25 12 -119 20 -210 8 -91 26 -289 40 -440 14 -151 32 -349 40 -440 21 -243 43 -474 60 -655 16 -171 37 -400 60 -660 8 -88 26 -284 40 -435 14 -151 32 -347 40 -435 52 -581 155 -1697 160 -1733 14 -98 89 -204 183 -259 91 -53 72 -53 1258 -53 l1101 0 7 -137 c54 -1059 574 -2138 1382 -2875 294 -268 545 -443 849 -593 378 -187 730 -289 1172 -342 196 -23 611 -23 803 0 813 98 1548 472 2157 1101 597 615 1005 1433 1143 2286 21 135 50 423 50 507 l0 53 1223 2 1222 3 65 31 c113 54 197 158 214 264 3 19 24 258 46 530 65 794 79 974 95 1160 8 96 20 231 25 300 35 442 51 639 60 740 6 63 21 255 35 425 30 369 50 616 70 860 9 99 20 236 25 305 5 69 17 204 25 300 8 96 24 288 35 425 11 138 43 525 70 860 28 336 82 997 120 1470 39 473 79 966 90 1095 19 228 38 454 80 975 11 138 25 302 30 365 6 63 19 225 30 360 11 135 29 362 41 505 12 143 22 287 22 320 -1 128 -78 247 -201 307 l-67 33 -7080 2 c-5571 1 -7090 -1 -7125 -11z m13830 -642 c0 -19 -7 -113 -15 -207 -8 -95 -24 -287 -35 -427 -12 -140 -30 -358 -40 -485 -11 -126 -22 -261 -25 -300 -3 -38 -12 -149 -20 -245 -15 -183 -37 -451 -80 -975 -14 -170 -49 -609 -79 -975 -31 -366 -73 -890 -96 -1165 -22 -275 -47 -576 -55 -670 -8 -93 -26 -312 -40 -485 -14 -173 -32 -394 -40 -490 -8 -96 -19 -233 -25 -305 -6 -71 -22 -265 -35 -430 -13 -165 -29 -358 -35 -430 -5 -71 -17 -209 -25 -305 -8 -96 -24 -285 -35 -420 -40 -495 -61 -750 -80 -980 -11 -129 -33 -408 -50 -620 -17 -212 -33 -400 -36 -417 l-5 -33 -5819 0 -5820 0 -4 23 c-4 17 -92 973 -186 2012 -5 55 -30 323 -55 595 -25 272 -52 567 -60 655 -8 88 -26 284 -40 435 -14 151 -30 329 -35 395 -6 66 -15 163 -20 215 -6 52 -17 172 -25 265 -8 94 -26 294 -40 445 -14 151 -32 352 -40 445 -8 94 -17 186 -20 205 -3 19 -9 89 -15 155 -8 105 -70 779 -220 2415 -22 239 -47 507 -55 595 -8 88 -26 284 -40 435 -36 386 -52 571 -75 835 -11 127 -22 240 -24 253 l-3 22 6723 0 6724 0 0 -36z m-3600 -11036 c0 -171 -47 -488 -105 -717 -246 -973 -870 -1805 -1685 -2244 -304 -164 -663 -279 -995 -318 -160 -19 -568 -17 -728 4 -509 68 -946 240 -1336 527 -579 426 -1040 1058 -1280 1754 -101 293 -171 627 -186 894 -3 53 -8 109 -10 125 l-4 27 3164 0 3165 0 0 -52z"/>
 </g>
<g id="layer102" fill="#fb0b0c" stroke="none">
 <path d="M3810 13654 c-187 -15 -319 -45 -395 -90 -54 -31 -111 -91 -130 -136 -13 -33 -15 -374 -15 -3275 0 -3179 1 -3239 20 -3281 42 -92 146 -156 315 -194 96 -22 120 -23 545 -23 424 0 450 1 544 23 125 28 199 61 255 115 88 85 80 -37 81 1347 l1 1225 25 -30 c42 -51 738 -933 1746 -2215 293 -372 311 -389 453 -434 163 -52 279 -60 860 -60 441 0 554 3 672 17 168 21 256 47 301 90 76 73 46 126 -334 582 -170 204 -610 732 -978 1175 -369 443 -793 953 -944 1134 -150 180 -271 333 -269 340 3 6 99 124 213 261 225 270 1211 1456 1809 2175 204 244 463 557 578 694 211 254 256 322 259 391 1 33 -4 43 -36 71 -43 37 -113 59 -268 81 -95 14 -214 17 -748 17 -668 1 -758 -3 -918 -45 -107 -28 -178 -64 -231 -118 -25 -25 -219 -266 -431 -535 -212 -270 -497 -632 -634 -805 -137 -174 -346 -439 -464 -589 l-214 -272 -39 47 c-21 27 -121 152 -223 278 l-186 230 0 773 c0 852 3 811 -63 881 -68 71 -157 110 -312 137 -68 12 -179 17 -445 19 -195 1 -375 1 -400 -1z"/>
 <path d="M10476 13635 c-75 -37 -112 -70 -137 -122 l-24 -48 0 -430 c0 -421 0 -431 22 -470 26 -50 65 -86 123 -116 l45 -24 595 0 595 0 45 24 c58 30 97 66 123 116 22 39 22 48 22 475 l0 435 -27 46 c-32 54 -82 95 -149 120 -46 18 -87 19 -617 18 l-567 0 -49 -24z"/>
 <path d="M10582 11870 c-112 -23 -200 -126 -231 -269 -11 -52 -23 -241 -41 -656 -18 -420 -39 -887 -50 -1090 -5 -110 -17 -355 -25 -545 -8 -190 -17 -383 -20 -430 -3 -47 -12 -238 -20 -425 -8 -187 -19 -421 -25 -520 -33 -610 -43 -918 -31 -984 17 -97 51 -158 130 -234 l69 -67 754 0 755 0 46 31 c66 44 120 109 146 176 39 98 39 188 1 1073 -5 124 -14 356 -20 515 -6 160 -15 394 -20 520 -5 127 -14 361 -20 520 -5 160 -15 400 -20 535 -6 135 -17 418 -25 630 -9 212 -20 502 -25 645 -14 340 -34 420 -128 506 -83 77 -55 74 -637 76 -286 1 -539 -3 -563 -7z"/>
 </g>
<g id="layer103" fill="#ffffff" stroke="none">
 <path d="M367 15980 c-32 -10 -67 -26 -76 -34 -10 -9 -23 -16 -30 -16 -16 0 -191 -174 -191 -190 0 -7 -8 -24 -18 -38 -11 -15 -27 -57 -37 -93 -20 -77 -18 -266 9 -634 13 -197 22 -288 62 -682 9 -87 20 -210 24 -273 4 -63 15 -187 24 -275 8 -88 25 -257 35 -375 20 -208 41 -439 81 -875 11 -115 27 -293 35 -395 9 -102 25 -277 35 -390 11 -113 29 -308 40 -435 11 -126 29 -322 40 -435 11 -113 29 -308 40 -435 11 -126 30 -326 40 -442 11 -117 29 -309 40 -425 10 -117 29 -316 40 -443 11 -126 29 -322 40 -435 10 -113 28 -306 40 -430 11 -124 29 -324 41 -445 11 -121 29 -317 40 -435 10 -118 27 -287 35 -375 9 -88 20 -212 24 -275 4 -63 15 -185 24 -270 16 -156 43 -452 70 -765 17 -190 47 -517 76 -825 11 -113 22 -246 25 -295 7 -107 36 -245 59 -280 9 -13 16 -29 16 -34 0 -38 141 -195 207 -230 21 -12 45 -25 53 -30 8 -5 40 -20 70 -33 l55 -23 1082 -3 1082 -3 5 -32 c3 -18 7 -66 10 -107 7 -113 63 -428 96 -541 11 -36 20 -73 20 -83 0 -9 9 -45 20 -79 78 -239 111 -339 130 -387 12 -30 29 -73 37 -95 8 -21 20 -51 27 -65 7 -14 20 -41 28 -60 60 -135 197 -395 270 -508 10 -15 27 -43 38 -62 19 -33 27 -45 75 -116 82 -122 273 -368 354 -458 98 -108 377 -380 461 -449 52 -44 107 -90 122 -103 14 -13 29 -24 32 -24 3 0 15 -8 25 -18 10 -9 36 -28 56 -42 20 -14 44 -33 53 -42 9 -10 20 -18 24 -18 4 0 28 -15 54 -32 25 -18 59 -41 75 -51 73 -44 91 -54 155 -91 88 -51 243 -127 324 -160 36 -15 74 -31 85 -36 11 -5 38 -16 60 -24 89 -31 112 -40 159 -57 27 -11 57 -19 68 -19 10 0 31 -6 46 -14 15 -7 43 -17 62 -20 19 -4 69 -15 110 -26 275 -70 438 -85 910 -85 389 0 571 12 725 46 189 43 331 83 429 120 27 11 55 19 62 19 7 0 33 9 56 19 24 10 68 29 98 42 30 12 75 31 100 42 48 21 292 141 325 160 73 43 163 100 245 156 52 36 112 76 133 90 20 13 37 28 37 33 0 4 4 8 10 8 38 0 620 542 620 578 0 6 4 12 8 12 16 0 249 301 336 434 54 82 58 88 84 132 23 41 36 62 63 104 14 22 52 90 89 160 7 14 17 32 21 40 28 51 149 308 149 316 0 3 6 20 14 37 38 82 73 178 122 332 14 44 32 98 39 120 36 106 135 569 135 630 0 15 7 83 17 151 l16 124 1126 0 c637 0 1150 4 1181 9 49 9 108 32 195 78 37 20 185 169 185 187 0 8 6 19 14 25 42 35 97 310 96 478 -1 26 8 149 20 273 11 124 29 338 40 475 11 138 28 329 37 425 8 96 19 231 23 300 4 69 14 206 23 305 17 180 38 433 77 915 22 267 47 575 80 970 11 129 29 350 40 490 19 238 29 359 80 975 50 604 61 736 80 975 11 140 30 361 40 490 11 129 27 325 35 435 15 196 36 455 75 925 20 235 43 518 81 980 10 135 26 322 35 415 9 94 19 235 24 315 5 80 14 186 20 235 15 121 40 536 47 769 6 202 -6 287 -49 348 -10 14 -18 31 -18 37 0 17 -176 191 -193 191 -8 0 -20 7 -27 15 -7 8 -43 24 -80 35 -67 20 -86 20 -7226 19 -6911 -1 -7161 -1 -7217 -19z m14395 -258 c79 -39 129 -92 159 -171 27 -71 27 -112 0 -436 -12 -143 -30 -370 -41 -505 -11 -135 -24 -297 -30 -360 -5 -63 -19 -225 -30 -360 -37 -468 -60 -746 -80 -980 -11 -129 -51 -622 -90 -1095 -38 -473 -92 -1134 -120 -1470 -27 -335 -59 -722 -70 -860 -11 -137 -27 -329 -35 -425 -8 -96 -20 -231 -25 -300 -5 -69 -16 -206 -25 -305 -20 -244 -40 -491 -70 -860 -14 -170 -29 -362 -35 -425 -9 -101 -25 -298 -60 -740 -5 -69 -17 -204 -25 -300 -16 -186 -30 -366 -95 -1160 -22 -272 -43 -511 -46 -530 -16 -103 -87 -192 -194 -244 l-65 -31 -1230 -5 -1230 -5 -2 -35 c-24 -359 -46 -536 -99 -774 -313 -1409 -1298 -2561 -2544 -2976 -384 -128 -662 -173 -1085 -174 -590 -1 -1074 109 -1580 359 -780 385 -1471 1132 -1857 2005 -206 467 -329 971 -356 1460 l-7 135 -1135 5 c-841 4 -1144 8 -1168 17 -128 46 -219 152 -237 275 -5 36 -108 1152 -160 1733 -8 88 -26 284 -40 435 -14 151 -32 347 -40 435 -23 260 -44 489 -60 660 -17 181 -39 412 -60 655 -8 91 -26 289 -40 440 -14 151 -32 349 -40 440 -8 91 -17 185 -20 210 -3 25 -12 122 -20 215 -8 94 -26 294 -40 445 -14 151 -32 347 -40 435 -13 143 -148 1622 -256 2790 -22 242 -46 510 -54 595 -8 85 -26 279 -40 430 -14 151 -32 354 -40 450 -8 96 -17 191 -20 210 -15 108 -35 418 -30 454 20 124 115 230 235 262 35 10 1554 12 7125 11 l7080 -2 67 -33z"/>
 <path d="M857 15174 c-3 -4 -4 -18 -1 -33 2 -14 13 -129 24 -256 23 -263 39 -446 75 -835 14 -151 32 -347 40 -435 8 -88 33 -356 55 -595 150 -1636 212 -2310 220 -2415 6 -66 12 -136 15 -155 3 -19 12 -111 20 -205 8 -93 26 -294 40 -445 14 -151 32 -351 40 -445 8 -93 19 -213 25 -265 5 -52 14 -149 20 -215 5 -66 21 -244 35 -395 14 -151 32 -347 40 -435 8 -88 35 -383 60 -655 25 -272 50 -538 54 -590 100 -1108 186 -2020 192 -2038 l9 -22 5829 0 c4246 0 5832 3 5837 11 3 6 21 194 40 418 18 223 42 516 53 651 21 254 47 567 81 990 11 135 27 324 35 420 8 96 20 234 25 305 6 72 22 265 35 430 13 165 29 359 35 430 6 72 17 209 25 305 8 96 26 317 40 490 14 173 32 392 40 485 8 94 33 395 55 670 23 275 65 799 96 1165 30 366 65 805 79 975 41 508 64 790 80 975 8 96 17 204 20 240 3 36 14 173 25 305 20 247 46 563 76 931 10 116 15 218 11 227 -6 16 -438 17 -6740 17 -3704 0 -6736 -3 -6740 -6z m3798 -1558 c194 -33 299 -92 340 -188 13 -33 15 -135 15 -810 l0 -773 38 -46 c20 -25 124 -154 231 -287 151 -188 197 -239 207 -231 7 6 109 133 227 282 117 150 326 414 463 588 137 173 422 535 634 805 212 269 402 505 422 525 45 45 119 81 220 108 160 42 250 46 918 45 534 0 653 -3 748 -17 219 -32 287 -63 284 -132 -3 -69 -48 -137 -259 -391 -115 -137 -374 -450 -578 -694 -598 -719 -1584 -1905 -1809 -2175 -114 -137 -210 -255 -213 -261 -2 -7 119 -160 269 -340 151 -181 575 -691 944 -1134 368 -443 808 -971 978 -1175 312 -374 366 -451 366 -521 0 -66 -90 -104 -313 -131 -118 -14 -231 -17 -672 -17 -578 0 -705 9 -861 59 -139 46 -147 53 -441 427 -1813 2304 -1779 2261 -1794 2253 -5 -4 -9 -477 -9 -1238 0 -1179 -1 -1234 -19 -1272 -40 -87 -128 -139 -297 -177 -94 -22 -120 -23 -544 -23 -424 0 -450 1 -544 23 -169 38 -257 90 -297 177 -18 39 -19 145 -19 3278 0 2905 2 3241 16 3275 50 120 199 181 504 206 25 2 205 2 400 1 266 -2 377 -7 445 -19z m7046 9 c65 -23 112 -60 140 -108 l24 -42 0 -435 c0 -426 0 -436 -21 -475 -26 -48 -45 -65 -104 -96 l-45 -24 -595 0 -595 0 -45 24 c-59 31 -78 48 -104 96 -21 39 -21 50 -21 470 0 430 0 430 23 477 23 46 55 73 132 110 31 15 94 16 601 17 486 1 573 -1 610 -14z m0 -1786 c52 -24 102 -71 126 -121 42 -83 52 -153 63 -423 5 -143 16 -433 25 -645 8 -212 19 -495 25 -630 5 -135 15 -375 20 -535 6 -159 15 -393 20 -520 5 -126 14 -360 20 -520 6 -159 15 -391 20 -515 26 -603 32 -814 27 -910 -8 -163 -50 -251 -154 -319 l-46 -31 -754 0 -754 0 -60 57 c-68 65 -103 130 -120 224 -12 66 -2 374 31 984 6 99 17 333 25 520 8 187 17 378 20 425 3 47 12 240 20 430 8 190 20 435 25 545 11 203 32 670 50 1090 18 415 30 604 41 656 30 141 103 227 211 249 24 4 277 8 563 7 456 -2 524 -4 556 -18z"/>
 <path d="M4377 4153 c-7 -12 11 -245 28 -368 107 -777 464 -1502 1025 -2079 517 -532 1079 -820 1777 -913 160 -21 568 -23 728 -4 192 23 422 77 607 145 1094 398 1938 1465 2153 2722 27 158 53 458 42 487 -6 16 -197 17 -3181 17 -1746 0 -3177 -3 -3179 -7z m6140 -270 c-3 -16 -10 -66 -17 -113 -25 -192 -96 -481 -151 -622 -11 -26 -19 -53 -19 -60 -1 -7 -9 -31 -20 -53 -11 -22 -19 -47 -20 -56 0 -8 -4 -19 -8 -25 -5 -5 -21 -40 -36 -79 -15 -38 -32 -78 -37 -87 -11 -21 -25 -51 -37 -75 -35 -73 -73 -143 -113 -208 -10 -16 -28 -46 -39 -65 -34 -58 -70 -113 -143 -214 -23 -32 -46 -65 -52 -73 -11 -17 -25 -34 -128 -158 -184 -222 -463 -466 -675 -592 -35 -21 -76 -45 -90 -54 -157 -95 -326 -171 -552 -249 -62 -21 -214 -60 -270 -70 -30 -5 -91 -16 -135 -26 -63 -13 -141 -16 -375 -17 -261 -1 -311 2 -430 22 -204 33 -366 73 -495 122 -28 11 -54 19 -59 19 -4 0 -22 6 -39 14 -18 8 -64 28 -103 45 -69 30 -196 93 -245 123 -132 80 -299 195 -324 223 -5 6 -44 38 -85 71 -96 76 -342 324 -422 426 -34 43 -65 78 -70 78 -4 0 -8 5 -8 11 0 6 -19 34 -42 64 -24 29 -58 75 -76 102 -66 98 -119 178 -126 193 -4 8 -18 33 -31 55 -13 22 -39 69 -58 105 -18 36 -39 74 -45 85 -17 32 -73 156 -93 208 -11 26 -28 71 -40 100 -93 238 -192 635 -201 805 l-3 52 2959 0 2959 0 -6 -27z"/>
 </g>

</svg>