<?xml version="1.0" encoding="utf-8"?>
<!-- Generator: Adobe Illustrator 16.0.2, SVG Export Plug-In . SVG Version: 6.00 Build 0)  -->
<!DOCTYPE svg PUBLIC "-//W3C//DTD SVG 1.1//EN" "http://www.w3.org/Graphics/SVG/1.1/DTD/svg11.dtd">
<svg version="1.1" xmlns="http://www.w3.org/2000/svg" xmlns:xlink="http://www.w3.org/1999/xlink" x="0px" y="0px" width="1280px"
	 height="800px" viewBox="0 0 1280 800" enable-background="new 0 0 1280 800" xml:space="preserve">
<g id="Nombre" display="none">
	<g id="K" display="inline">
		<path fill="#FB0F0C" d="M729.491,478.569l-83.43-100.316l0.638-0.79l0.083,0.015l73.54-88.418
			c2.285-2.689,3.048-4.935,3.048-6.429c0-2.689-6.479-4.631-21.334-4.631h-17.91c-11.044,0-19.429,1.463-22.857,5.939L606.334,354
			h-0.001L600,361.205v-72.587c0-6.272-5.749-9.618-19.989-9.618h-11.863c-14.245,0-21.148,3.346-21.148,9.618v191.15
			c0,6.266,6.903,9.231,21.148,9.231h11.863c14.24,0,19.989-2.966,19.989-9.231v-44.81l13.87-16.987l51.897,65.522
			c3.439,4.471,12.277,5.506,23.339,5.506h22.099c14.854,0,21.334-1.627,21.334-4.314
			C732.538,483.186,731.777,481.255,729.491,478.569z"/>
	</g>
	<g id="L" display="inline">
		<path fill="#FB0F0C" d="M767.538,288.546c0-6.275,6.105-9.862,20.35-9.862h11.866c14.241,0,20.344,3.587,20.344,9.862V479.84
			c0,6.274-6.103,9.86-20.344,9.86h-11.866c-14.244,0-20.35-3.586-20.35-9.86V288.546z"/>
	</g>
	<g id="i" display="inline">
		<g>
			<path fill-rule="evenodd" clip-rule="evenodd" fill="#FB0F0C" d="M887.219,333h-11.74c-14.08,0-20.479,4.41-20.479,10.68v18.404
				V463v16.65c0,6.27,6.616,10.35,20.707,10.35h11.734c14.079,0,20.559-4.08,20.559-10.35v-18.4V360.334V343.68
				C908,337.41,901.309,333,887.219,333z"/>
			<path fill-rule="evenodd" clip-rule="evenodd" fill="#FB0F0C" d="M864.344,315.862c11.419,0.024,22.837,0.024,34.255,0
				c5.279-0.014,9.123-2.8,9.17-6.77c0.084-7.657,0.067-15.314,0.004-22.971c-0.025-3.068-2.127-5.331-5.797-6.568
				c-0.322-0.109-0.774,0.446-0.922-0.554c-12.938,0-25.874,0-38.813,0c-4.34,1-7.087,3.461-7.105,7.126
				c-0.039,7.562-0.063,15.201,0.009,22.76C855.183,312.966,858.974,315.85,864.344,315.862z"/>
		</g>
	</g>
	<g id="P" display="inline">
		<path fill="#FB0F0C" d="M943.098,290.711c0-8.417,3.604-12.026,12.021-12.026h63.124c26.751,0,71.541,7.818,71.541,65.829
			c0,58.017-52.303,65.834-68.533,65.834h-31.865v69.733c0,6.315-5.41,9.619-18.037,9.619H961.13
			c-12.622,0-18.032-3.304-18.032-9.619V290.711z M1016.139,370.668c11.425,0,26.151-4.51,26.151-26.154
			c0-21.641-14.727-26.45-26.151-26.45h-26.753v52.604H1016.139z"/>
	</g>
	<g id="_x21_" display="inline">
		<g>
			<path fill-rule="evenodd" clip-rule="evenodd" fill="#FA0F0C" d="M1176.066,281.145c5.417,2.98,6.876,6.779,6.488,15.434
				c-0.743,16.609-1.321,32.886-1.943,48.826c-1.092,28.016-2.117,55.033-3.164,81.105c-0.293,7.246-3.627,11.314-9.042,11.32
				c-9.398,0.01-18.798,0.006-28.198,0.002c-5.544-0.006-8.855-4.004-9.222-11.408c-0.677-13.705-1.275-27.675-1.941-41.907
				c-1.337-28.568-2.723-58.241-4.206-89.081c-0.35-7.27,0.972-10.574,6.082-14.291
				C1145.967,281.145,1161.016,281.145,1176.066,281.145z"/>
			<path fill-rule="evenodd" clip-rule="evenodd" fill="#FA0F0C" d="M1136.315,491.41c-0.13-0.344-0.53-0.291-0.816-0.4
				c-3.25-1.238-5.11-3.346-5.133-6.414c-0.056-7.656-0.071-15.314,0.005-22.971c0.04-3.971,3.444-6.756,8.119-6.77
				c10.11-0.025,20.222-0.025,30.332,0c4.756,0.012,8.113,2.818,8.146,6.898c0.063,7.559,0.043,15.121,0.008,22.684
				c-0.017,3.664-2.449,5.803-6.292,6.973C1159.228,491.41,1147.772,491.41,1136.315,491.41z"/>
		</g>
	</g>
</g>
<g id="Layer_9">
	<path fill="#FFFFFF" d="M723.491,497.569l-83.43-100.316l0.638-0.79l0.083,0.015l73.54-88.418c2.285-2.689,3.048-4.935,3.048-6.429
		c0-2.689-6.479-4.631-21.334-4.631h-17.91c-11.044,0-19.429,1.463-22.857,5.939L600.334,373h-0.001L594,380.205v-72.587
		c0-6.272-5.749-9.618-19.989-9.618h-11.863c-14.245,0-21.148,3.346-21.148,9.618v191.15c0,6.266,6.903,9.231,21.148,9.231h11.863
		c14.24,0,19.989-2.966,19.989-9.231v-44.81l13.87-16.987l51.897,65.522c3.439,4.471,12.277,5.506,23.339,5.506h22.099
		c14.854,0,21.334-1.627,21.334-4.314C726.538,502.186,725.777,500.255,723.491,497.569z"/>
	<path fill="#FFFFFF" d="M761.538,307.547c0-6.275,6.105-9.862,20.35-9.862h11.866c14.241,0,20.344,3.587,20.344,9.862V498.84
		c0,6.274-6.103,9.86-20.344,9.86h-11.866c-14.244,0-20.35-3.586-20.35-9.86V307.547z"/>
	<g>
		<path fill-rule="evenodd" clip-rule="evenodd" fill="#FFFFFF" d="M881.219,351h-11.74c-14.08,0-20.479,4.41-20.479,10.68v18.404
			V481v16.65c0,6.27,6.616,10.35,20.707,10.35h11.734c14.079,0,20.559-4.08,20.559-10.35v-18.4V378.334V361.68
			C902,355.41,895.309,351,881.219,351z"/>
		<path fill-rule="evenodd" clip-rule="evenodd" fill="#FFFFFF" d="M858.344,333.862c11.419,0.024,22.837,0.024,34.255,0
			c5.279-0.014,9.123-2.8,9.17-6.77c0.084-7.657,0.067-15.314,0.004-22.971c-0.025-3.068-2.127-5.331-5.797-6.567
			c-0.322-0.109-0.774,0.445-0.922-0.555c-12.938,0-25.874,0-38.813,0c-4.34,1-7.087,3.461-7.105,7.127
			c-0.039,7.561-0.063,15.2,0.009,22.76C849.183,330.966,852.974,333.85,858.344,333.862z"/>
	</g>
	<path fill="#FFFFFF" d="M937.098,387.711c0-8.418,3.604-12.026,12.021-12.026h63.124c26.751,0,71.541,7.817,71.541,65.829
		c0,58.017-52.303,65.834-68.533,65.834h-31.865v69.733c0,6.315-5.41,9.619-18.037,9.619H955.13
		c-12.622,0-18.032-3.304-18.032-9.619V387.711z M1010.139,467.668c11.425,0,26.151-4.51,26.151-26.154
		c0-21.641-14.727-26.449-26.151-26.449h-26.753v52.604H1010.139z"/>
	<g>
		<path fill-rule="evenodd" clip-rule="evenodd" fill="#FFFFFF" d="M1157.76,297.145c4.016,2.98,5.098,6.779,4.811,15.434
			c-0.552,16.609-0.98,32.887-1.441,48.826c-0.81,28.016-1.569,55.033-2.346,81.105c-0.217,7.246-2.688,11.314-6.703,11.32
			c-6.968,0.01-13.937,0.006-20.905,0.002c-4.11-0.006-6.565-4.004-6.837-11.408c-0.502-13.705-0.945-27.676-1.439-41.906
			c-0.991-28.568-2.019-58.242-3.118-89.082c-0.259-7.27,0.721-10.574,4.509-14.291
			C1135.444,297.145,1146.602,297.145,1157.76,297.145z"/>
		<path fill-rule="evenodd" clip-rule="evenodd" fill="#FFFFFF" d="M1128.289,507.41c-0.096-0.344-0.393-0.291-0.604-0.4
			c-2.41-1.238-3.789-3.346-3.806-6.414c-0.041-7.656-0.053-15.314,0.004-22.971c0.029-3.971,2.553-6.756,6.02-6.77
			c7.495-0.025,14.991-0.025,22.486,0c3.526,0.012,6.016,2.818,6.04,6.898c0.047,7.559,0.032,15.121,0.006,22.684
			c-0.013,3.664-1.815,5.803-4.665,6.973C1145.275,507.41,1136.783,507.41,1128.289,507.41z"/>
	</g>
</g>
<g id="Layer_8" display="none">
	<path display="inline" d="M729.491,477.569l-83.43-100.316l0.638-0.79l0.083,0.015l73.54-88.418
		c2.285-2.689,3.048-4.935,3.048-6.429c0-2.689-6.479-4.631-21.334-4.631h-17.91c-11.044,0-19.429,1.463-22.857,5.939L606.334,353
		h-0.001L600,360.205v-72.587c0-6.272-5.749-9.618-19.988-9.618h-11.863c-14.246,0-21.148,3.346-21.148,9.618v191.15
		c0,6.266,6.902,9.231,21.148,9.231h11.863c14.239,0,19.988-2.966,19.988-9.231v-44.81l13.869-16.987l51.897,65.522
		c3.439,4.471,12.277,5.506,23.339,5.506h22.099c14.854,0,21.334-1.627,21.334-4.314
		C732.538,482.186,731.777,480.255,729.491,477.569z"/>
	<path display="inline" d="M767.538,287.547c0-6.275,6.105-9.862,20.35-9.862h11.866c14.241,0,20.344,3.587,20.344,9.862V478.84
		c0,6.274-6.103,9.86-20.344,9.86h-11.866c-14.244,0-20.35-3.586-20.35-9.86V287.547z"/>
	<g display="inline">
		<path fill-rule="evenodd" clip-rule="evenodd" d="M887.219,332h-11.74c-14.08,0-20.479,4.41-20.479,10.68v18.404V462v16.65
			c0,6.27,6.616,10.35,20.707,10.35h11.734c14.079,0,20.559-4.08,20.559-10.35v-18.4V359.334V342.68
			C908,336.41,901.309,332,887.219,332z"/>
		<path fill-rule="evenodd" clip-rule="evenodd" d="M864.344,314.862c11.419,0.024,22.837,0.024,34.255,0
			c5.279-0.014,9.123-2.8,9.17-6.77c0.084-7.657,0.067-15.314,0.004-22.971c-0.025-3.068-2.127-5.331-5.797-6.567
			c-0.322-0.109-0.774,0.445-0.922-0.555c-12.938,0-25.874,0-38.813,0c-4.34,1-7.087,3.461-7.105,7.127
			c-0.039,7.561-0.063,15.2,0.009,22.76C855.183,311.966,858.974,314.85,864.344,314.862z"/>
	</g>
	<path display="inline" d="M943.098,289.711c0-8.418,3.604-12.026,12.021-12.026h63.124c26.751,0,71.541,7.817,71.541,65.829
		c0,58.017-52.303,65.834-68.533,65.834h-31.865v69.733c0,6.315-5.41,9.619-18.037,9.619H961.13
		c-12.622,0-18.032-3.304-18.032-9.619V289.711z M1016.139,369.668c11.425,0,26.151-4.51,26.151-26.154
		c0-21.641-14.727-26.449-26.151-26.449h-26.753v52.604H1016.139z"/>
	<g display="inline">
		<path fill-rule="evenodd" clip-rule="evenodd" d="M1176.066,280.145c5.417,2.98,6.876,6.779,6.488,15.434
			c-0.743,16.609-1.321,32.887-1.943,48.826c-1.092,28.016-2.117,55.033-3.164,81.105c-0.293,7.246-3.627,11.314-9.042,11.32
			c-9.398,0.01-18.798,0.006-28.198,0.002c-5.544-0.006-8.855-4.004-9.222-11.408c-0.677-13.705-1.275-27.676-1.941-41.906
			c-1.337-28.568-2.723-58.242-4.206-89.082c-0.35-7.27,0.972-10.574,6.082-14.291
			C1145.967,280.145,1161.016,280.145,1176.066,280.145z"/>
		<path fill-rule="evenodd" clip-rule="evenodd" d="M1136.315,490.41c-0.13-0.344-0.53-0.291-0.816-0.4
			c-3.25-1.238-5.11-3.346-5.133-6.414c-0.056-7.656-0.071-15.314,0.005-22.971c0.04-3.971,3.444-6.756,8.119-6.77
			c10.11-0.025,20.222-0.025,30.332,0c4.756,0.012,8.113,2.818,8.146,6.898c0.063,7.559,0.043,15.121,0.008,22.684
			c-0.017,3.664-2.449,5.803-6.292,6.973C1159.228,490.41,1147.772,490.41,1136.315,490.41z"/>
	</g>
</g>
<g id="Layer_5">
	<g>
		<path fill="none" stroke="#FFFFFF" stroke-width="29" stroke-miterlimit="10" d="M179.523,238.896
			c-1.941-37.773,15.059-74.773,45.059-98.773c21-17,47-23,73-20c58,8,96,68,90.437,122.613"/>
		<g>
			<path fill="none" stroke="#FFFFFF" stroke-width="32" stroke-miterlimit="10" d="M497.396,569.205
				c0.063,0.776-0.522,1.412-1.302,1.412H73.732c-0.78,0-1.359-0.635-1.288-1.411l30.114-328.832
				c0.071-0.776,0.767-1.412,1.547-1.412h364.832c0.779,0,1.469,0.636,1.532,1.413L497.396,569.205z"/>
		</g>
		<g>
			<path fill="#FFFFFF" d="M497.625,569.205c0.063,0.776-0.522,1.412-1.302,1.412H73.961c-0.78,0-1.359-0.635-1.288-1.411
				l30.114-328.832c0.071-0.776,0.767-1.412,1.547-1.412h364.831c0.78,0,1.47,0.636,1.533,1.413L497.625,569.205z"/>
			<path fill="none" stroke="#000000" stroke-width="18" stroke-miterlimit="10" d="M497.625,569.205
				c0.063,0.776-0.522,1.412-1.302,1.412H73.961c-0.78,0-1.359-0.635-1.288-1.411l30.114-328.832
				c0.071-0.776,0.767-1.412,1.547-1.412h364.831c0.78,0,1.47,0.636,1.533,1.413L497.625,569.205z"/>
		</g>
		<path fill="none" stroke="#000000" stroke-width="18" stroke-miterlimit="10" d="M179.523,238.896
			c-1.941-37.773,15.059-74.773,45.059-98.773c21-17,47-23,73-20c58,8,96,68,90.437,122.613"/>
		<path fill="#FB0F0C" d="M336.779,504.94l-83.43-100.316l0.638-0.79l0.083,0.015l73.54-88.418c2.285-2.689,3.048-4.62,3.048-6.114
			c0-2.689-6.479-4.316-21.334-4.316h-17.91c-11.044,0-19.429,0.962-22.857,5.44L213.623,380h-0.001L208,387.576v-72.587
			c0-6.272-6.461-9.989-20.701-9.989h-11.863c-14.244,0-20.436,3.717-20.436,9.989v191.15c0,6.266,6.191,9.86,20.436,9.86h11.863
			c14.24,0,20.701-3.595,20.701-9.86v-44.81l13.514-16.987l51.719,65.837c3.439,4.471,12.1,5.82,23.161,5.82h22.099
			c14.854,0,21.334-1.941,21.334-4.629C339.826,509.871,339.065,507.626,336.779,504.94z"/>
		<g>
			<path fill-rule="evenodd" clip-rule="evenodd" fill="#FA0F0C" d="M413,305.432c5.417,2.98,6.876,6.779,6.488,15.434
				c-0.743,16.609-1.321,32.886-1.943,48.826c-1.092,28.016-2.117,55.033-3.164,81.104c-0.293,7.247-3.627,11.315-9.042,11.32
				c-9.398,0.011-18.798,0.007-28.198,0.002c-5.544-0.005-8.855-4.004-9.222-11.408c-0.677-13.705-1.275-27.675-1.941-41.906
				c-1.337-28.568-2.723-58.241-4.206-89.081c-0.35-7.27,0.972-10.574,6.082-14.291C382.9,305.432,397.949,305.432,413,305.432z"/>
			<path fill-rule="evenodd" clip-rule="evenodd" fill="#FA0F0C" d="M373.249,515.696c-0.13-0.344-0.53-0.291-0.816-0.4
				c-3.25-1.237-5.11-3.346-5.133-6.414c-0.056-7.656-0.071-15.313,0.005-22.971c0.04-3.97,3.444-6.756,8.119-6.77
				c10.11-0.024,20.222-0.024,30.332,0c4.756,0.013,8.113,2.819,8.146,6.898c0.063,7.56,0.043,15.122,0.008,22.684
				c-0.017,3.665-2.449,5.803-6.292,6.973C396.161,515.696,384.706,515.696,373.249,515.696z"/>
		</g>
	</g>
</g>
</svg>
